# xmcd CD database file
#
# Track frame offsets:
#	150
#	11555
#	22422
#	39242
#	54475
#	69170
#	80845
#	96732
#	109485
#	121152
#
# Disc length: 1835 seconds
#
# Revision: 2
# Processed by: cddbd v1.5.2PL0 Copyright (c) Steve Scherf et al.
# Submitted via: CDex 1.83
#
DISCID=8807290a
DTITLE=Various Christmas - Citco Country Christmas
DYEAR=1995
DGENRE=Christmas
TTITLE0=Christmas Time - John Anderson
TTITLE1=Winter Wonderland - Randy Travis
TTITLE2=Blue Christmas - K.T.Oslin
TTITLE3=I Only Want You For Christmas - Alan Jackson
TTITLE4=Mary, Did You Know - Kathy Mattea
TTITLE5=Country Christmas - Ricky Van Shelton
TTITLE6=What Child Is This - The Judds
TTITLE7=Frosty The Snowman - Sammy Kershaw
TTITLE8=Let It Snow! Let It Snow! Let It Snow! - Lorrie Morgan
TTITLE9=Tennessee Christmas - Alabama
EXTD=YEAR: 1995
EXTT0=
EXTT1=
EXTT2=
EXTT3=
EXTT4=
EXTT5=
EXTT6=
EXTT7=
EXTT8=
EXTT9=
PLAYORDER=
